<svg width="1440" height="952" viewBox="0 0 1440 952" fill="none" xmlns="http://www.w3.org/2000/svg">
<path opacity="0.8" d="M1438.97 37.1609L1438.97 927.161L-0.12281 951.161C-0.12281 951.161 -15.9188 573.724 -15.9188 333.161C-15.9189 229.161 -35.9188 127.161 48.0812 185.161C131.603 242.831 280.081 173.161 392.081 117.161C504.081 61.1608 574.081 217.161 778.081 117.161C969.841 23.1609 1073.58 177.661 1184.08 71.161C1294.58 -35.339 1438.97 37.1609 1438.97 37.1609Z" fill="#00715D"/>
<path opacity="0.8" d="M1445 72.1019C1445 264.062 1445 906.062 1445 906.062L-1.5 930.062C-1.5 930.062 -1.49995 566.625 -1.49999 326.062C-1.5 222.062 -1.49999 98.5619 -1.49999 186.102C-1.49999 287.6 230.5 174.102 342.5 118.102C454.5 62.1017 524.5 218.102 728.5 118.102C920.26 24.1018 1024 178.602 1134.5 72.1019C1245 -34.3981 1445 -13.0807 1445 72.1019Z" fill="#00715D"/>
</svg>
