<svg width="376" height="442" viewBox="0 0 376 442" fill="none" xmlns="http://www.w3.org/2000/svg">
<path d="M184.988 441.916C263.761 441.916 327.62 429.488 327.62 414.158C327.62 398.827 263.761 386.399 184.988 386.399C106.214 386.399 42.3555 398.827 42.3555 414.158C42.3555 429.488 106.214 441.916 184.988 441.916Z" fill="#2B2B31"/>
<path d="M66.1194 152.697C66.1194 112.258 120.01 79.4746 186.488 79.4746C252.966 79.4746 306.857 112.258 306.857 152.697" stroke="#1F2D2B" stroke-width="2" stroke-miterlimit="10"/>
<path d="M225.841 90.8953H127.914C108.546 54.9782 108.546 19.0611 127.914 -16.8559H225.841C198.759 19.0611 198.759 54.9782 225.841 90.8953Z" fill="#9BA8A6"/>
<path d="M195.58 12.7439H140.399V20.4404H195.58V12.7439Z" fill="#2C7A6C"/>
<path d="M195.58 37.9714H122.523V40.5369H195.58V37.9714Z" fill="white"/>
<path d="M195.58 51.2265H122.523V53.792H195.58V51.2265Z" fill="white"/>
<path d="M195.58 64.4816H122.523V67.0471H195.58V64.4816Z" fill="white"/>
<path d="M263.433 346.181C263.433 380.354 282.917 408.007 306.995 408.007L263.433 346.181Z" fill="#1F2D2B"/>
<path d="M306.995 408.007C306.995 373.45 328.737 345.487 355.607 345.487L306.995 408.007Z" fill="#00715D"/>
<path d="M279.217 349.279C279.217 381.74 291.641 408.007 306.995 408.007L279.217 349.279Z" fill="#2C7A6C"/>
<path d="M306.995 408.007C306.995 363.851 332.126 328.12 363.183 328.12L306.995 408.007Z" fill="#1F2D2B"/>
<path d="M297.831 408.442C297.831 408.442 304.009 408.233 305.87 406.774C307.732 405.316 315.373 403.574 315.835 405.913C316.297 408.253 325.119 417.549 318.144 417.611C311.17 417.673 301.939 416.416 300.08 415.17C298.222 413.925 297.831 408.442 297.831 408.442Z" fill="#A8A8A8"/>
<path opacity="0.2" d="M318.269 416.797C311.294 416.859 302.063 415.601 300.205 414.356C298.79 413.407 298.226 410.004 298.037 408.434C297.906 408.44 297.831 408.442 297.831 408.442C297.831 408.442 298.222 413.925 300.08 415.17C301.939 416.416 311.17 417.673 318.144 417.611C320.158 417.593 320.853 416.805 320.815 415.638C320.535 416.343 319.767 416.783 318.269 416.797Z" fill="black"/>
<path d="M144.995 210.617L146.647 221.781L149.95 216.848L148.062 209.319L144.995 210.617Z" fill="#A0616A"/>
<path d="M146.215 126.202L143.614 133.743C143.614 133.743 141.024 172.153 141.024 175.009C141.024 177.864 142.911 214.469 143.619 216.027C143.619 216.027 146.686 211.094 150.697 211.873C154.708 212.652 153.057 198.893 153.057 198.893L156.832 164.884L156.124 147.75L146.215 126.202Z" fill="#2C7A6C"/>
<path opacity="0.1" d="M145.262 126.202L142.661 133.743C142.661 133.743 140.071 172.153 140.071 175.009C140.071 177.864 141.959 214.469 142.666 216.027C142.666 216.027 145.734 211.094 149.744 211.873C153.755 212.652 152.104 198.893 152.104 198.893L155.879 164.884L155.171 147.75L145.262 126.202Z" fill="#136758"/>
<path d="M163.162 84.7069C163.162 84.7069 170.948 106.514 166.465 110.668C161.983 114.822 191.475 103.658 191.475 103.658L190.767 100.803C190.767 100.803 181.094 96.649 185.812 84.7069C190.531 72.7649 163.162 84.7069 163.162 84.7069Z" fill="#A0616A"/>
<path opacity="0.1" d="M163.162 84.7069C163.162 84.7069 170.948 106.514 166.465 110.668C161.983 114.822 191.475 103.658 191.475 103.658L190.767 100.803C190.767 100.803 181.094 96.649 185.812 84.7069C190.531 72.7649 163.162 84.7069 163.162 84.7069Z" fill="black"/>
<path d="M150.894 375.988C150.894 375.988 147.59 374.95 145.703 377.546C143.815 380.142 136.737 386.632 136.737 386.632C136.737 386.632 123.053 385.074 121.165 392.603C119.278 400.132 142.636 400.132 148.298 398.315C153.961 396.497 155.14 398.315 155.14 398.315C155.14 398.315 172.6 399.872 172.6 396.757C172.6 393.642 170.948 382.998 170.948 382.998L150.894 375.988Z" fill="#00715D"/>
<path d="M206.339 393.382L203.272 403.766C203.272 403.766 194.07 417.785 199.261 420.641C204.452 423.497 222.855 426.352 222.855 418.824V404.545C222.855 404.545 220.967 394.42 219.08 393.382C217.192 392.344 206.339 393.382 206.339 393.382Z" fill="#00715D"/>
<path d="M154.235 206.819C154.235 206.819 144.287 216.329 144.523 217.627C144.759 218.925 149.478 302.259 149.478 302.259L152.073 356.258C152.073 356.258 148.77 368.979 150.422 371.834C152.073 374.69 148.062 375.469 148.062 375.469C148.062 375.469 165.05 392.344 172.128 385.075L178.734 290.836L196.901 359.373C196.901 359.373 199.969 395.719 203.508 395.719C207.047 395.719 221.439 396.497 221.203 394.42C220.967 392.344 221.911 376.507 220.259 367.162C218.608 357.816 207.519 283.827 207.519 283.827C207.519 283.827 206.565 220.398 209.047 214.469C211.53 208.54 207.755 202.31 207.755 202.31L191.239 195.3L171.42 197.896L154.235 206.819Z" fill="#2F2E41"/>
<path d="M174.49 92.6575C182.978 92.6575 188.148 83.9595 190.069 72.9588C191.99 61.9581 181.057 57.1552 172.57 57.1552C164.082 57.1552 162.045 54.2757 158.683 68.2766C160.124 79.7773 166.003 92.6575 174.49 92.6575Z" fill="#A0616A"/>
<path d="M214.361 114.562C213.545 112.022 212.17 109.744 210.358 107.932C208.547 106.12 206.355 104.83 203.98 104.178C199.221 102.86 194.565 101.124 190.059 98.9855C190.059 98.9855 173.308 107.812 170.005 107.812C166.701 107.812 166.701 105.476 166.701 105.476C166.701 105.476 158.208 115.341 153.725 116.379C149.242 117.418 142.636 129.619 144.995 136.369C146.598 140.697 148.918 144.658 151.837 148.052C151.837 148.052 150.894 184.397 153.961 191.147C153.961 191.147 146.411 206.983 153.489 208.021C160.567 209.06 187.7 205.425 192.419 209.06C197.137 212.694 205.867 208.281 207.047 213.213C208.227 218.146 210.822 219.184 210.822 219.184C210.822 219.184 214.833 212.175 212.473 208.021C210.114 203.867 214.361 114.562 214.361 114.562Z" fill="#136758"/>
<path d="M196.901 212.175L193.126 214.771C193.126 214.771 197.137 230.088 198.789 230.607C200.441 231.126 204.328 217.51 204.328 217.51L196.901 212.175Z" fill="#A0616A"/>
<path opacity="0.1" d="M205.041 119.105L212.709 114.562C212.709 114.562 231.348 163.368 226.866 176.868C222.383 190.368 205.159 218.146 205.159 218.146C205.159 218.146 191.475 215.031 192.891 211.915C194.306 208.8 203.508 188.81 204.216 186.214C204.923 183.618 209.642 166.743 207.519 164.926C205.395 163.109 201.266 120.922 201.266 120.922L205.041 119.105Z" fill="black"/>
<path d="M204.923 111.706L214.361 114.562C214.361 114.562 233 163.368 228.517 176.868C224.034 190.368 206.811 218.146 206.811 218.146C206.811 218.146 193.126 215.031 194.542 211.915C195.958 208.8 205.159 188.81 205.867 186.214C206.575 183.618 211.294 166.743 209.17 164.926C207.047 163.109 196.901 118.196 196.901 118.196L204.923 111.706Z" fill="#2C7A6C"/>
<path d="M306.857 152.697C306.857 195.096 252.966 229.466 186.488 229.466C120.01 229.466 66.1194 195.096 66.1194 152.697" stroke="#1F2D2B" stroke-width="2" stroke-miterlimit="10"/>
<path d="M310.458 199.698C284.451 229.128 248.039 250.083 205.865 256.501C165.428 262.654 126.351 254.431 94.0357 235.73" stroke="#1F2D2B" stroke-width="2" stroke-miterlimit="10"/>
<path d="M38.563 120.464C47.1906 103.016 62.9517 87.6613 83.602 75.8648" stroke="#1F2D2B" stroke-width="2" stroke-miterlimit="10"/>
<path d="M219.004 57.7234C237.927 57.0807 258.539 63.9124 278.514 76.8962" stroke="#1F2D2B" stroke-width="2" stroke-miterlimit="10"/>
<path d="M144.419 307.238H242.345C261.714 271.321 261.714 235.404 242.345 199.487H144.419C171.5 235.404 171.5 271.321 144.419 307.238Z" fill="#9BA8A6"/>
<path d="M232.001 220.011H176.821V227.707H232.001V220.011Z" fill="#00715D"/>
<path d="M245.602 243.1H172.546V245.666H245.602V243.1Z" fill="white"/>
<path d="M245.602 256.356H172.546V258.921H245.602V256.356Z" fill="white"/>
<path d="M102.907 234.101H4.98093C-14.3875 198.184 -14.3875 162.267 4.98093 126.35H102.907C75.8259 162.267 75.8259 198.184 102.907 234.101Z" fill="#9BA8A6"/>
<path d="M71.0424 139.178H15.8616V146.874H71.0424V139.178Z" fill="#136758"/>
<path d="M76.8713 160.557H3.81494V163.122H76.8713V160.557Z" fill="white"/>
<path d="M76.8713 173.812H3.81494V176.378H76.8713V173.812Z" fill="white"/>
<path d="M76.8713 187.067H3.81494V189.633H76.8713V187.067Z" fill="white"/>
<path d="M76.8713 200.322H3.81494V202.888H76.8713V200.322Z" fill="white"/>
<path d="M263.002 184.467H360.928C380.297 148.55 380.297 112.633 360.928 76.7162H263.002C290.083 112.633 290.083 148.55 263.002 184.467Z" fill="#9BA8A6"/>
<path d="M349.418 87.4059H294.238V95.1024H349.418V87.4059Z" fill="#00715D"/>
<path d="M361.465 108.785H288.409V111.351H361.465V108.785Z" fill="white"/>
<rect x="194" y="70.9107" width="0.5" height="0.4" fill="#D9D9D9"/>
<rect x="174" y="70.9107" width="0.5" height="0.4" fill="#D9D9D9"/>
<path d="M162.381 83.3451C162.377 82.0321 162.109 79.9941 162.109 79.9941L164.867 84.3403L166.257 84.5343C166.257 84.5343 166.267 85.4561 166.705 85.8212C166.982 86.0521 167.286 85.9971 167.594 86.1975C168.38 86.7083 167.646 87.9935 168.614 88.1764C169.214 88.2897 169.516 87.7144 170.127 87.7754C171.313 87.8938 170.952 89.4752 171.671 89.8635C172.03 90.0577 171.624 89.2807 172.82 89.1955C173.291 89.1618 173.368 90.1243 173.733 89.8631C174.87 89.0494 174.345 88.9403 175.959 87.6529C176.969 86.8474 177.944 88.8303 178.687 89.51C178.977 89.7755 178.957 88.943 179.311 88.7329C179.808 88.4375 180.848 88.6233 180.848 88.6233C180.848 88.6233 180.889 87.3352 181.573 86.9598C182.262 86.5817 183.646 87.1051 183.646 87.1051C183.646 87.1051 182.991 84.8193 184.129 84.5795C184.324 84.5383 184.641 84.543 184.641 84.543L185.219 83.183C185.219 83.183 185.746 83.1169 186.391 82.8064C187.014 82.5064 186.896 81.8337 187.25 81.303C187.763 80.5338 187.52 79.6977 187.893 80.0619C188.08 80.244 188.488 83.2431 188.488 83.2431C188.488 83.2431 188.392 85.2877 187.893 86.5093C187.476 87.531 186.511 87.8898 186.374 88.9622C186.308 89.4738 186.604 89.7692 186.48 90.2735C186.304 90.9912 185.644 91.1821 185.232 91.8279C184.799 92.5044 184.828 92.996 184.348 93.6493C183.731 94.4911 183.883 95.6752 182.878 96.1753C181.706 96.7588 179.311 98.0762 179.311 98.0762C179.311 98.0762 177.405 98.1464 176.292 98.5514C175.291 98.9159 173.887 98.4754 172.82 98.5514C171.453 98.6488 170.718 96.1737 169.569 95.7283C167.972 95.1094 167.33 93.5432 166.346 92.0014C165.574 90.7909 165.303 89.7311 165.303 89.7311C165.303 89.7311 163.636 88.238 163.483 86.3439C163.44 85.8186 162.387 85.5428 162.381 83.3451Z" fill="#2F2E41"/>
<path d="M162.106 79.0673C161.979 79.5313 162.062 79.082 162.106 79.5425C162.153 79.8112 162.2 79.6864 162.457 79.8077C162.562 79.8573 162.198 80.5121 162.106 80.493C161.825 80.4343 160.298 79.1871 160.229 78.908C160.122 78.4792 159.766 78.0281 159.528 77.6766C159.238 77.2475 159.136 76.5708 158.929 76.0721C158.713 75.5516 158.323 75.0771 158.138 74.5463C158.049 74.2897 157.878 74.0863 157.777 73.8291C157.641 73.4827 157.579 73.1563 157.47 72.805C157.187 71.8944 156.834 70.6834 156.834 69.6995C156.834 69.1763 156.847 68.6511 156.834 68.1282C156.828 67.8763 156.712 67.677 156.704 67.4316C156.691 67.0287 155.874 66.8685 155.639 66.7931C155.2 66.6521 154.755 66.5491 154.314 66.4366C154.168 66.3993 154.205 65.9756 154.155 65.8478C154.093 65.689 153.898 65.4763 154.068 65.3669C154.444 65.1259 154.8 64.8049 155.17 64.546C155.865 64.0594 156.154 63.6318 156.574 62.8626C156.634 62.7544 156.965 61.6367 156.737 61.5317C156.732 61.5297 156.468 62.0408 156.405 62.0832C156.23 62.1993 155.851 62.6398 155.859 62.249C155.867 61.8948 155.949 61.2754 155.852 60.943C155.815 60.8149 155.366 61.6174 155.282 61.3991C155.165 61.0984 155.609 60.7156 155.7 60.4911C156.002 59.7483 156.657 59.3119 157.275 58.957C157.475 58.8423 157.441 58.6422 157.416 58.3849C157.408 58.3068 157.379 57.8534 157.34 57.8044C157.256 57.6989 156.459 57.7117 156.524 57.5639C156.662 57.2473 156.931 56.9638 157.087 56.6435C157.4 56.002 157.714 55.5758 158.38 55.325C158.963 55.1055 159.43 54.5335 159.99 54.2761C160.19 54.1843 160.344 53.9803 160.547 53.9029C160.882 53.7747 161.085 53.6517 161.305 53.3432C161.558 52.9883 161.54 52.5643 161.644 52.1326C161.725 51.7994 161.839 51.4842 161.904 51.1458C161.953 50.8952 161.997 50.5988 162.067 50.358C162.091 50.2758 162.129 50.1545 162.162 50.0312C162.196 49.6769 162.229 49.4352 162.229 49.6698C162.229 49.7608 162.199 49.8972 162.162 50.0312C162.131 50.3719 162.099 50.8166 162.099 51.0421C162.099 51.352 162.146 51.566 162.197 51.8589C162.209 51.929 162.203 52.3477 162.298 52.2113C162.38 52.0939 162.398 51.9701 162.439 51.834C162.595 51.315 162.931 50.8022 163.168 50.3207C163.256 50.4495 163.165 50.5093 163.136 50.727C163.075 51.177 163.036 51.6662 163.089 52.1326C163.247 52.5048 163.62 52.4937 163.809 52.2113C164.415 51.3036 164.395 51.2104 164.634 50.1259C164.912 48.867 165.49 47.7842 166.064 46.6846C166.116 46.5855 166.517 45.9497 166.404 46.3114C166.358 46.458 166.306 46.5513 166.227 46.6722C166.001 47.0187 165.869 47.5856 165.869 48.0113C165.869 48.3761 166.132 47.9038 166.238 47.804C166.436 47.6166 166.667 47.4803 166.844 47.265C166.977 47.1043 167.041 46.8553 167.141 46.668C167.446 46.0947 167.598 45.6233 167.769 44.9681C167.819 44.7752 167.837 44.532 167.899 44.3545C167.956 44.1903 168.079 43.8834 168.079 43.716C168.079 43.4546 168.165 43.1581 168.238 42.9092L168.242 42.8951C168.309 42.6623 168.306 42.1868 168.455 42.0161C168.54 41.9183 168.467 42.2924 168.469 42.4307C168.472 42.5826 168.494 42.7628 168.549 42.9034C168.623 43.0914 168.648 43.3257 168.668 43.5336C168.692 43.7858 168.826 44.0203 168.859 44.2633C168.915 44.6626 168.932 45.0518 169.184 44.595C169.329 44.3319 169.646 44.0838 169.719 43.8321C169.746 43.7399 170.271 42.835 170.286 42.8495C170.483 43.0385 170.561 44.0628 170.549 44.3545C170.535 44.7048 170.352 44.9377 170.109 45.1174C169.992 45.2033 169.686 45.4416 169.639 45.59C169.548 45.8785 169.276 46.076 169.242 46.3778C169.226 46.5214 169.071 47.2385 169.181 47.1365C169.381 46.9505 169.609 46.7972 169.82 46.6266C170.629 45.9705 171.466 45.3078 172.294 44.682C172.746 44.3401 173.286 44.2002 173.734 43.8694C173.923 43.73 174.02 43.5336 174.269 43.5336C174.598 43.5336 174.06 44.1153 173.929 44.2799C173.681 44.5921 173.35 44.8146 173.117 45.1423C173.006 45.2976 172.934 45.4879 172.828 45.6481C172.819 45.6611 172.606 45.9005 172.705 45.872C172.931 45.8073 173.176 45.5074 173.344 45.3247C173.53 45.1239 174.463 44.7919 174.114 45.1132C173.853 45.3528 173.608 45.4297 173.406 45.7434C173.194 46.0722 172.989 46.4063 172.81 46.7592C172.724 46.9288 172.683 47.1115 172.601 47.2816C172.467 47.5587 172.457 47.4908 172.658 47.3397C173.084 47.0197 173.566 46.7814 174.002 46.4731C174.573 46.0684 175.076 45.5511 175.684 45.2335C175.936 45.102 176.163 45.0916 176.436 45.1008C176.665 45.1085 176.003 45.4108 175.916 45.4739C175.219 45.979 174.499 46.4099 173.937 47.0743C173.712 47.3391 173.5 47.5889 173.243 47.8123C173.137 47.9046 173.943 47.4372 174.077 47.3521C174.523 47.0692 174.955 46.895 175.424 46.668C175.56 46.6025 175.881 46.5181 176.017 46.61C176.052 46.6338 175.611 46.8717 175.569 46.8919C175.151 47.09 174.961 47.4624 174.673 47.8248C174.502 48.0404 174.354 48.353 174.157 48.5338C173.919 48.7522 174.203 48.4826 174.348 48.4011C174.768 48.166 175.194 48.0048 175.605 47.746C175.842 47.597 176.183 47.5037 176.45 47.5719C176.698 47.6351 176.357 48.5621 176.623 48.4177C176.969 48.2304 177.319 48.1227 177.663 47.9201C178.004 47.7195 178.369 47.4662 178.642 47.1531C179.093 46.6349 179.341 45.9965 179.682 46.8587C179.827 47.2245 179.836 47.7074 179.844 48.1109C179.863 49.0752 180.789 48.459 181.303 48.3803C181.521 48.347 181.59 48.1747 181.791 48.3472C181.941 48.4766 181.982 48.6684 182.091 48.8323C182.202 48.9996 182.184 49.4474 182.184 49.6698C182.184 49.9485 182.306 50.141 182.379 50.3953C182.433 50.5785 182.79 50.6425 182.914 50.7561C183.06 50.8901 183.322 50.5546 183.47 50.5488C183.714 50.5391 183.925 50.8105 184.033 51.0256C184.295 51.5437 184.572 52.0022 184.734 52.5803C184.866 53.0538 185.055 53.1608 185.463 53.1608C185.757 53.1608 186.137 53.5464 186.279 53.8159C186.48 54.1943 186.785 54.4954 187.092 54.7695C187.735 55.3434 188.511 55.3572 189.179 55.6982C189.328 55.7742 189.573 55.7568 189.692 55.8931C189.828 56.0488 189.849 56.3852 189.854 56.5938C189.866 57.0717 190.14 57.4686 190.176 57.9039C190.248 58.7794 190.535 59.5411 190.696 60.3708C190.758 60.6917 190.818 61.1749 191.039 61.4281C191.264 61.6867 191.479 62.073 191.479 62.4563V65.6944C191.479 66.6249 191.533 67.5833 191.411 68.4972C191.328 69.1162 191.115 69.7241 190.974 70.3256C190.865 70.7897 190.833 71.1566 190.627 71.586C190.508 71.8352 192.066 72.1411 191.998 72.4142C191.887 72.8598 191.534 73.3706 191.491 73.8399C191.454 74.2507 191.635 74.4189 191.491 74.7903C191.393 75.0451 191.116 75.9817 190.985 76.216C190.478 77.1664 191.161 77.0842 190.974 77.3242C190.823 77.518 190.057 78.407 189.625 78.407C189.498 78.6291 188.44 80.0619 187.646 80.0619C187.426 80.7564 188.042 77.3242 188.042 77.3242C188.042 76.694 188.535 75.414 188.451 74.7903C188.315 73.7701 188.723 70.8796 188.451 69.882C187.839 67.6329 186.612 67.6246 185.597 65.5535C185.597 64.546 185.165 64.7504 184.9 64.3552C184.732 64.1055 184.402 63.6338 184.134 63.5509C183.91 63.4812 183.612 63.5343 183.38 63.5343L183.348 63.5343C182.853 63.5344 182.381 63.5345 181.917 63.298C181.496 63.083 181.18 62.7548 180.754 62.5475C180.073 62.2153 179.533 61.8377 178.819 61.6603C177.905 61.4334 177.204 60.8201 176.269 60.9223C176.019 60.9496 175.852 61.0996 175.67 61.2788C175.387 61.5568 174.906 61.4447 174.576 61.4447C174.309 61.4447 173.973 61.5079 173.709 61.4405C173.654 61.4265 173.665 61.3247 173.597 61.2913C173.45 61.2191 173.285 61.0819 173.164 60.9803C172.796 60.6734 172.057 60.656 171.658 60.885C171.502 60.9742 171.269 60.9318 171.098 60.9637C170.883 61.004 170.684 61.0978 170.474 61.1462C170.187 61.212 169.893 61.2953 169.611 61.3866C168.96 61.5972 168.145 61.8925 167.462 61.8925C167.321 61.8925 166.835 61.5503 166.729 61.4281C166.466 61.1261 166.26 61.1462 165.902 61.1462H165.451C165.32 61.1462 165.251 61.3153 165.126 61.3535C164.842 61.4396 164.473 61.3701 164.179 61.3701C163.667 61.3701 163.67 62.1956 163.529 62.6222C163.361 63.1331 163.324 63.6979 163.074 64.1687C162.601 65.0612 162.806 66.0651 162.457 67.0004C162.279 67.4781 162.159 67.9484 161.984 68.4184C161.847 68.7853 161.969 69.4771 161.969 69.882C161.969 70.1776 161.962 70.6876 161.681 70.8314C161.552 70.8972 161.328 70.7478 161.319 70.9807C161.312 71.1845 161.319 71.3904 161.319 71.5943C161.319 72.4875 161.384 73.3771 161.384 74.281C161.384 75.1113 161.319 75.9751 161.319 76.7811C161.319 77.23 161.6 78.5921 162.106 79.0673Z" fill="#2F2E41"/>
<path d="M162.739 70.8653L162.714 69.1936C162.712 69.0264 164.36 68.9101 165.424 68.8244C166.729 68.7192 167.469 68.7105 168.777 68.7813C170.477 68.8733 171.411 69.1484 173.098 69.3945C173.91 69.5131 174.358 69.6954 175.178 69.7021C176.122 69.7098 176.636 69.4867 177.568 69.337C179.189 69.0766 180.071 68.6867 181.71 68.6149C183.21 68.5492 184.061 68.6632 185.547 68.9C186.176 69.0002 187.147 69.1203 187.148 69.2138C187.156 69.7153 187.399 70.8825 187.173 70.8854C186.694 70.8916 186.855 71.0574 186.699 71.2259C186.227 71.7336 186.49 74.5087 185.487 75.7558C184.662 76.7829 184.074 76.9443 182.79 76.9608L182.79 76.9608C180.714 76.9875 180.235 76.9937 178.786 76.1763C176.956 75.1443 176.733 71.0197 175.517 71.0353C174.878 71.0435 174.719 71.0456 174.561 71.2148C173.665 72.1795 173.913 74.0437 172.704 75.2514C171.28 76.6747 169.895 77.4346 167.941 77.1518C166.277 76.911 164.738 76.5242 164.234 74.8587C163.867 73.6438 164.198 72.3513 163.701 71.1873C163.588 70.9204 162.743 71.1572 162.739 70.8653Z" fill="#2F2E41"/>
<path d="M173.127 71.4005C173.308 72.9029 172.245 76.5949 168.758 76.7281C165.062 76.8694 164.874 74.9293 164.664 71.5093C165.15 69.8311 165.83 69.488 168.652 69.4517C171.474 69.4154 172.945 69.898 173.127 71.4005Z" fill="#F2F2F2" fill-opacity="0.19"/>
<path d="M185.741 71.2382C185.922 72.7406 185.824 76.9218 181.691 76.5618C178.403 76.2753 177.483 74.4327 177.273 71.0127C178.052 69.6652 178.763 69.3216 181.585 69.2853C184.407 69.249 185.559 69.7358 185.741 71.2382Z" fill="#F2F2F2" fill-opacity="0.19"/>
<path d="M169.746 85.4133C169.597 85.9361 168.586 85.9704 168.586 85.9704C168.586 85.9704 168.232 84.5327 168.499 83.6433C168.678 83.0463 168.742 82.643 169.288 82.1926C170.434 81.2476 171.585 80.4318 173.606 80.3633C174.449 80.3347 174.658 80.6972 175.306 80.694C176.015 80.6904 176.302 80.2718 177.145 80.2432C179.807 80.1529 181.935 82.0225 182.493 83.4275C182.799 84.1974 182.571 85.496 182.571 85.496C182.571 85.496 181.515 85.4094 181.372 85.0189C181.184 84.5075 180.972 83.3496 180.293 83.2432C178.936 83.0303 178.053 83.6571 176.587 83.3689C176.244 83.3017 175.754 83.3116 175.402 83.2797C175.141 83.2559 174.826 83.41 174.565 83.4375C173.388 83.5616 173.384 83.4406 172.538 83.3768C171.692 83.3131 170.25 83.5043 169.876 84.3733C169.71 84.7589 169.855 85.0328 169.746 85.4133Z" fill="#2F2E41"/>
</svg>
