<svg width="198" height="360" viewBox="0 0 198 360" fill="none" xmlns="http://www.w3.org/2000/svg">
<path d="M140.374 360C201.326 360 188.754 345.081 188.754 333.051C188.754 321.021 201.326 316.436 140.374 316.436C79.4223 316.436 30.011 326.188 30.011 338.218C30.011 350.248 79.4223 360 140.374 360Z" fill="#2B2B31"/>
<path d="M71.0365 132.22C71.0365 100.231 102.386 74.2983 141.058 74.2983" stroke="#1F2D2B" stroke-width="2" stroke-miterlimit="10"/>
<path d="M171.985 84.5527H96.2128C81.2263 56.3685 81.2263 28.1842 96.2128 0H171.985C151.03 28.1842 151.03 56.3685 171.985 84.5527Z" fill="#9BA8A6"/>
<path d="M148.57 23.2271H105.873V29.2665H148.57V23.2271Z" fill="#2C7A6C"/>
<path d="M148.57 43.0232H92.0415V45.0364H148.57V43.0232Z" fill="white"/>
<path d="M148.57 53.4246H92.0415V55.4377H148.57V53.4246Z" fill="white"/>
<path d="M148.57 63.8257H92.0415V65.8388H148.57V63.8257Z" fill="white"/>
<path d="M0 287.371C0 314.186 15.0756 335.885 33.7061 335.885L0 287.371Z" fill="#1F2D2B"/>
<path d="M33.7061 335.885C33.7061 308.768 50.5295 286.826 71.3201 286.826L33.7061 335.885Z" fill="#00715D"/>
<path d="M12.2125 289.802C12.2125 315.273 21.826 335.885 33.7063 335.885L12.2125 289.802Z" fill="#2C7A6C"/>
<path d="M33.7061 335.885C33.7061 301.236 53.1514 273.198 77.1821 273.198L33.7061 335.885Z" fill="#1F2D2B"/>
<path d="M26.6155 336.227C26.6155 336.227 31.3956 336.063 32.8362 334.918C34.2768 333.773 40.1891 332.406 40.5465 334.242C40.9039 336.078 47.7301 343.373 42.3334 343.422C36.9367 343.47 29.7939 342.484 28.3561 341.506C26.9182 340.529 26.6155 336.227 26.6155 336.227Z" fill="#A8A8A8"/>
<path opacity="0.2" d="M42.4297 342.783C37.033 342.831 29.8902 341.845 28.4524 340.867C27.3574 340.123 26.9211 337.452 26.7751 336.22C26.674 336.225 26.6155 336.227 26.6155 336.227C26.6155 336.227 26.9182 340.529 28.3561 341.506C29.7939 342.484 36.9367 343.47 42.3334 343.422C43.8912 343.408 44.4293 342.789 44.3998 341.873C44.1833 342.427 43.5892 342.772 42.4297 342.783Z" fill="black"/>
<path d="M109.429 178.499L110.707 187.259L113.263 183.388L111.803 177.48L109.429 178.499Z" fill="#A0616A"/>
<path d="M110.373 112.258L108.36 118.175C108.36 118.175 106.356 148.316 106.356 150.557C106.356 152.798 107.817 181.521 108.365 182.744C108.365 182.744 110.738 178.873 113.841 179.484C116.945 180.095 115.667 169.299 115.667 169.299L118.588 142.612L118.04 129.167L110.373 112.258Z" fill="#2C7A6C"/>
<path opacity="0.1" d="M109.636 112.258L107.623 118.175C107.623 118.175 105.619 148.316 105.619 150.557C105.619 152.798 107.08 181.521 107.627 182.744C107.627 182.744 110.001 178.873 113.104 179.484C116.208 180.095 114.93 169.299 114.93 169.299L117.851 142.612L117.303 129.167L109.636 112.258Z" fill="#136758"/>
<path d="M123.487 79.6966C123.487 79.6966 129.511 96.8087 126.042 100.068C122.574 103.328 145.394 94.5679 145.394 94.5679L144.846 92.327C144.846 92.327 137.361 89.0675 141.012 79.6966C144.663 70.3257 123.487 79.6966 123.487 79.6966Z" fill="#A0616A"/>
<path opacity="0.1" d="M123.487 79.6966C123.487 79.6966 129.511 96.8087 126.042 100.068C122.574 103.328 145.394 94.5679 145.394 94.5679L144.846 92.327C144.846 92.327 137.361 89.0675 141.012 79.6966C144.663 70.3257 123.487 79.6966 123.487 79.6966Z" fill="black"/>
<path d="M113.993 308.266C113.993 308.266 111.437 307.451 109.977 309.488C108.517 311.525 103.04 316.618 103.04 316.618C103.04 316.618 92.4513 315.396 90.9908 321.304C89.5303 327.212 107.604 327.212 111.985 325.786C116.367 324.36 117.279 325.786 117.279 325.786C117.279 325.786 130.789 327.008 130.789 324.563C130.789 322.119 129.511 313.766 129.511 313.766L113.993 308.266Z" fill="#00715D"/>
<path d="M156.895 321.915L154.522 330.064C154.522 330.064 147.402 341.064 151.418 343.305C155.434 345.546 169.674 347.787 169.674 341.879V330.675C169.674 330.675 168.214 322.73 166.753 321.915C165.293 321.1 156.895 321.915 156.895 321.915Z" fill="#00715D"/>
<path d="M116.578 175.518C116.578 175.518 108.881 182.981 109.064 183.999C109.247 185.018 112.898 250.411 112.898 250.411L114.906 292.784C114.906 292.784 112.35 302.766 113.628 305.007C114.906 307.247 111.802 307.859 111.802 307.859C111.802 307.859 124.947 321.1 130.423 315.396L135.535 241.447L149.592 295.228C149.592 295.228 151.965 323.748 154.704 323.748C157.442 323.748 168.578 324.36 168.396 322.73C168.213 321.1 168.944 308.673 167.666 301.34C166.388 294.006 157.807 235.947 157.807 235.947C157.807 235.947 157.07 186.174 158.99 181.522C160.911 176.869 157.99 171.98 157.99 171.98L145.211 166.48L129.876 168.517L116.578 175.518Z" fill="#2F2E41"/>
<path d="M132.252 85.9354C138.819 85.9354 142.819 79.1101 144.306 70.4778C145.792 61.8455 137.332 58.0767 130.765 58.0767C124.198 58.0767 122.622 55.8171 120.02 66.8036C121.135 75.8283 125.685 85.9354 132.252 85.9354Z" fill="#A0616A"/>
<path d="M163.102 103.124C162.471 101.131 161.407 99.3434 160.005 97.9214C158.603 96.4994 156.907 95.4873 155.069 94.9754C151.387 93.9418 147.785 92.5793 144.298 90.9011C144.298 90.9011 131.337 97.8275 128.781 97.8275C126.225 97.8275 126.225 95.994 126.225 95.994C126.225 95.994 119.653 103.735 116.184 104.55C112.715 105.365 107.604 114.94 109.429 120.236C110.669 123.632 112.465 126.741 114.724 129.403C114.724 129.403 113.993 157.924 116.367 163.22C116.367 163.22 110.525 175.647 116.002 176.462C121.478 177.277 142.473 174.425 146.124 177.277C149.775 180.129 156.53 176.665 157.443 180.536C158.355 184.407 160.363 185.222 160.363 185.222C160.363 185.222 163.467 179.721 161.641 176.462C159.816 173.202 163.102 103.124 163.102 103.124Z" fill="#136758"/>
<path d="M149.592 179.721L146.671 181.758C146.671 181.758 149.775 193.778 151.053 194.185C152.331 194.592 155.339 183.908 155.339 183.908L149.592 179.721Z" fill="#A0616A"/>
<path opacity="0.1" d="M155.891 106.689L161.824 103.124C161.824 103.124 176.246 141.423 172.778 152.016C169.309 162.609 155.982 184.407 155.982 184.407C155.982 184.407 145.394 181.962 146.489 179.517C147.584 177.073 154.704 161.387 155.252 159.35C155.8 157.312 159.451 144.071 157.808 142.645C156.165 141.219 152.97 108.115 152.97 108.115L155.891 106.689Z" fill="black"/>
<path d="M155.799 100.883L163.102 103.124C163.102 103.124 177.524 141.423 174.055 152.016C170.587 162.609 157.26 184.407 157.26 184.407C157.26 184.407 146.671 181.962 147.767 179.517C148.862 177.073 155.982 161.387 156.529 159.35C157.077 157.312 160.728 144.071 159.085 142.645C157.442 141.219 149.592 105.976 149.592 105.976L155.799 100.883Z" fill="#2C7A6C"/>
<path d="M141.058 193.073C102.386 193.073 71.0365 164.547 71.0365 129.359" stroke="#1F2D2B" stroke-width="2" stroke-miterlimit="10"/>
<path d="M108.983 254.318H184.755C199.742 226.133 199.742 197.949 184.755 169.765H108.983C129.938 197.949 129.938 226.133 108.983 254.318Z" fill="#9BA8A6"/>
<path d="M176.751 185.87H134.055V191.91H176.751V185.87Z" fill="#00715D"/>
<path d="M187.275 203.989H130.747V206.002H187.275V203.989Z" fill="white"/>
<path d="M187.275 214.39H130.747V216.403H187.275V214.39Z" fill="white"/>
<path d="M185.408 226.861H128.88V228.874H185.408V226.861Z" fill="white"/>
<rect x="148.46" y="68.8708" width="0.389615" height="0.313881" fill="#D9D9D9"/>
<rect x="132.876" y="68.8708" width="0.389615" height="0.313881" fill="#D9D9D9"/>
<path d="M123.822 78.628C123.819 77.5977 123.61 75.9984 123.61 75.9984L125.759 79.4089L126.842 79.5612C126.842 79.5612 126.85 80.2845 127.191 80.571C127.407 80.7522 127.644 80.709 127.884 80.8662C128.496 81.2671 127.925 82.2756 128.679 82.4191C129.146 82.5081 129.382 82.0566 129.858 82.1045C130.782 82.1974 130.501 83.4383 131.061 83.743C131.341 83.8954 131.024 83.2857 131.956 83.2188C132.324 83.1924 132.383 83.9476 132.668 83.7427C133.553 83.1042 133.145 83.0185 134.403 82.0083C135.189 81.3763 135.949 82.9322 136.528 83.4656C136.754 83.674 136.739 83.0207 137.014 82.8558C137.402 82.624 138.212 82.7698 138.212 82.7698C138.212 82.7698 138.244 81.7591 138.777 81.4644C139.314 81.1678 140.393 81.5785 140.393 81.5785C140.393 81.5785 139.882 79.7848 140.769 79.5966C140.921 79.5643 141.168 79.568 141.168 79.568L141.618 78.5008C141.618 78.5008 142.029 78.4489 142.531 78.2053C143.016 77.9698 142.925 77.442 143.201 77.0256C143.6 76.422 143.411 75.7658 143.702 76.0516C143.847 76.1945 144.165 78.548 144.165 78.548C144.165 78.548 144.091 80.1523 143.702 81.111C143.377 81.9127 142.625 82.1942 142.518 83.0358C142.467 83.4372 142.697 83.669 142.601 84.0647C142.463 84.6279 141.949 84.7777 141.628 85.2845C141.291 85.8153 141.313 86.2011 140.939 86.7137C140.458 87.3743 140.577 88.3035 139.794 88.6959C138.881 89.1538 137.014 90.1875 137.014 90.1875C137.014 90.1875 135.529 90.2426 134.662 90.5604C133.882 90.8464 132.788 90.5007 131.956 90.5604C130.891 90.6369 130.318 88.6947 129.423 88.3451C128.179 87.8594 127.679 86.6305 126.912 85.4206C126.31 84.4707 126.099 83.6391 126.099 83.6391C126.099 83.6391 124.8 82.4675 124.68 80.9812C124.647 80.569 123.827 80.3525 123.822 78.628Z" fill="#2F2E41"/>
<path d="M123.608 75.2712C123.509 75.6352 123.573 75.2827 123.608 75.6441C123.644 75.8549 123.681 75.7569 123.881 75.8522C123.963 75.8911 123.679 76.4049 123.608 76.3899C123.389 76.3438 122.199 75.3651 122.145 75.1462C122.062 74.8097 121.785 74.4557 121.599 74.1799C121.373 73.8432 121.293 73.3122 121.132 72.9208C120.964 72.5124 120.66 72.14 120.516 71.7235C120.446 71.5222 120.313 71.3626 120.234 71.1607C120.129 70.8889 120.08 70.6328 119.995 70.3571C119.774 69.6425 119.5 68.6923 119.5 67.9202C119.5 67.5097 119.51 67.0975 119.5 66.6872C119.495 66.4896 119.405 66.3332 119.399 66.1406C119.388 65.8244 118.751 65.6987 118.569 65.6396C118.227 65.5289 117.879 65.4481 117.536 65.3598C117.422 65.3305 117.451 64.9981 117.412 64.8978C117.363 64.7732 117.212 64.6062 117.344 64.5204C117.637 64.3313 117.915 64.0794 118.203 63.8762C118.744 63.4944 118.97 63.1589 119.297 62.5553C119.343 62.4704 119.602 61.5933 119.424 61.5109C119.42 61.5094 119.215 61.9104 119.165 61.9437C119.029 62.0348 118.734 62.3805 118.74 62.0738C118.746 61.7958 118.81 61.3098 118.735 61.049C118.706 60.9484 118.356 61.5782 118.29 61.4068C118.199 61.1709 118.545 60.8705 118.616 60.6943C118.852 60.1115 119.361 59.7691 119.843 59.4906C119.999 59.4005 119.972 59.2435 119.953 59.0416C119.947 58.9803 119.924 58.6245 119.894 58.5861C119.829 58.5033 119.208 58.5134 119.258 58.3974C119.365 58.149 119.575 57.9264 119.697 57.6751C119.941 57.1718 120.185 56.8373 120.704 56.6405C121.159 56.4683 121.522 56.0194 121.959 55.8174C122.115 55.7454 122.235 55.5853 122.393 55.5246C122.654 55.424 122.812 55.3275 122.983 55.0854C123.181 54.8069 123.167 54.4742 123.248 54.1354C123.311 53.8739 123.4 53.6266 123.451 53.3611C123.488 53.1644 123.523 52.9318 123.577 52.7429C123.596 52.6784 123.626 52.5832 123.652 52.4865C123.678 52.2084 123.704 52.0187 123.704 52.2028C123.704 52.2742 123.68 52.3813 123.652 52.4865C123.627 52.7538 123.603 53.1027 123.603 53.2797C123.603 53.5229 123.639 53.6908 123.679 53.9206C123.688 53.9756 123.683 54.3042 123.757 54.1972C123.821 54.105 123.835 54.0079 123.867 53.9011C123.989 53.4939 124.25 53.0915 124.435 52.7136C124.503 52.8147 124.433 52.8616 124.41 53.0325C124.363 53.3855 124.333 53.7694 124.374 54.1354C124.496 54.4274 124.788 54.4187 124.934 54.1972C125.407 53.4849 125.391 53.4117 125.578 52.5607C125.794 51.5729 126.244 50.7232 126.692 49.8603C126.733 49.7826 127.045 49.2836 126.957 49.5675C126.921 49.6826 126.88 49.7558 126.819 49.8506C126.642 50.1225 126.54 50.5673 126.54 50.9014C126.54 51.1877 126.745 50.8171 126.827 50.7388C126.982 50.5917 127.162 50.4847 127.3 50.3158C127.403 50.1897 127.453 49.9943 127.531 49.8473C127.769 49.3974 127.887 49.0275 128.02 48.5134C128.06 48.362 128.073 48.1712 128.122 48.0319C128.166 47.903 128.262 47.6623 128.262 47.5309C128.262 47.3257 128.329 47.0931 128.386 46.8977L128.389 46.8867C128.442 46.704 128.439 46.3309 128.555 46.197C128.621 46.1202 128.564 46.4138 128.566 46.5223C128.569 46.6415 128.585 46.7829 128.628 46.8932C128.686 47.0408 128.705 47.2246 128.721 47.3877C128.74 47.5857 128.844 47.7696 128.87 47.9603C128.913 48.2737 128.927 48.5791 129.123 48.2206C129.236 48.0142 129.483 47.8195 129.54 47.622C129.561 47.5496 129.97 46.8395 129.982 46.8509C130.136 46.9992 130.196 47.803 130.187 48.0319C130.176 48.3068 130.033 48.4895 129.844 48.6305C129.753 48.6979 129.515 48.885 129.478 49.0014C129.407 49.2278 129.195 49.3828 129.168 49.6196C129.156 49.7323 129.035 50.295 129.121 50.215C129.277 50.069 129.455 49.9487 129.619 49.8148C130.249 49.3 130.901 48.78 131.546 48.2889C131.899 48.0206 132.32 47.9108 132.669 47.6513C132.816 47.5418 132.891 47.3877 133.085 47.3877C133.342 47.3877 132.923 47.8442 132.821 47.9733C132.627 48.2183 132.37 48.3929 132.188 48.6501C132.101 48.772 132.045 48.9213 131.963 49.047C131.956 49.0572 131.789 49.2451 131.867 49.2227C132.043 49.1719 132.234 48.9366 132.365 48.7932C132.509 48.6357 133.237 48.3751 132.964 48.6273C132.761 48.8152 132.571 48.8756 132.413 49.1218C132.248 49.3798 132.088 49.642 131.949 49.9189C131.882 50.052 131.849 50.1954 131.785 50.3288C131.681 50.5462 131.674 50.493 131.83 50.3744C132.162 50.1233 132.538 49.9363 132.877 49.6944C133.323 49.3768 133.714 48.9709 134.188 48.7216C134.385 48.6185 134.561 48.6103 134.774 48.6175C134.953 48.6236 134.436 48.8608 134.368 48.9103C133.826 49.3067 133.265 49.6448 132.826 50.1662C132.652 50.3739 132.486 50.5699 132.286 50.7453C132.203 50.8177 132.832 50.4509 132.936 50.3841C133.283 50.1621 133.62 50.0254 133.986 49.8473C134.091 49.7959 134.341 49.7297 134.447 49.8018C134.475 49.8205 134.131 50.0072 134.098 50.023C133.773 50.1785 133.625 50.4707 133.4 50.755C133.267 50.9243 133.151 51.1696 132.998 51.3114C132.813 51.4828 133.034 51.2712 133.147 51.2073C133.474 51.0228 133.806 50.8963 134.126 50.6932C134.311 50.5763 134.577 50.5031 134.785 50.5566C134.978 50.6062 134.712 51.3336 134.92 51.2203C135.189 51.0733 135.462 50.9888 135.73 50.8299C135.996 50.6724 136.28 50.4736 136.493 50.228C136.845 49.8214 137.037 49.3204 137.303 49.997C137.416 50.284 137.424 50.6629 137.43 50.9795C137.445 51.7363 138.166 51.2527 138.567 51.191C138.737 51.1648 138.791 51.0296 138.947 51.165C139.064 51.2665 139.095 51.4171 139.18 51.5456C139.267 51.6769 139.253 52.0283 139.253 52.2028C139.253 52.4215 139.348 52.5726 139.405 52.7722C139.447 52.9159 139.725 52.9661 139.822 53.0552C139.935 53.1604 140.14 52.8972 140.255 52.8926C140.445 52.885 140.61 53.098 140.694 53.2667C140.898 53.6733 141.114 54.0331 141.24 54.4867C141.343 54.8583 141.49 54.9422 141.808 54.9422C142.037 54.9422 142.333 55.2449 142.444 55.4563C142.6 55.7533 142.838 55.9895 143.077 56.2046C143.578 56.655 144.183 56.6658 144.704 56.9333C144.82 56.993 145.011 56.9793 145.103 57.0863C145.209 57.2085 145.226 57.4724 145.23 57.6361C145.239 58.0111 145.452 58.3225 145.48 58.6642C145.537 59.3512 145.761 59.9489 145.886 60.6C145.934 60.8518 145.981 61.2309 146.153 61.4296C146.329 61.6326 146.496 61.9357 146.496 62.2365V64.7774C146.496 65.5076 146.538 66.2596 146.443 66.9767C146.378 67.4625 146.213 67.9395 146.102 68.4115C146.017 68.7757 145.993 69.0636 145.832 69.4006C145.739 69.5961 146.953 69.8361 146.9 70.0505C146.814 70.4001 146.539 70.8009 146.505 71.1692C146.476 71.4916 146.618 71.6235 146.505 71.915C146.429 72.1149 146.213 72.8498 146.111 73.0337C145.716 73.7795 146.248 73.715 146.102 73.9033C145.984 74.0554 145.388 74.753 145.051 74.753C144.953 74.9273 144.128 76.0516 143.509 76.0516C143.338 76.5966 143.818 73.9033 143.818 73.9033C143.818 73.4088 144.202 72.4044 144.137 71.915C144.03 71.1144 144.348 68.8462 144.137 68.0634C143.66 66.2986 142.703 66.292 141.912 64.6668C141.912 63.8762 141.576 64.0366 141.369 63.7265C141.239 63.5306 140.981 63.1605 140.773 63.0954C140.598 63.0407 140.366 63.0824 140.185 63.0824L140.16 63.0824C139.774 63.0825 139.406 63.0825 139.045 62.8969C138.717 62.7283 138.47 62.4707 138.139 62.308C137.608 62.0473 137.188 61.751 136.631 61.6118C135.919 61.4337 135.373 60.9525 134.644 61.0327C134.449 61.0541 134.319 61.1718 134.177 61.3125C133.957 61.5306 133.582 61.4426 133.325 61.4426C133.117 61.4426 132.855 61.4922 132.649 61.4394C132.606 61.4284 132.615 61.3485 132.562 61.3222C132.448 61.2656 132.319 61.1579 132.224 61.0782C131.938 60.8374 131.362 60.8237 131.051 61.0034C130.93 61.0735 130.748 61.0402 130.615 61.0652C130.447 61.0968 130.292 61.1704 130.128 61.2084C129.904 61.2601 129.675 61.3254 129.455 61.3971C128.949 61.5623 128.313 61.794 127.781 61.794C127.672 61.794 127.293 61.5255 127.21 61.4296C127.005 61.1926 126.844 61.2084 126.566 61.2084H126.214C126.112 61.2084 126.059 61.3411 125.961 61.371C125.74 61.4386 125.452 61.3841 125.223 61.3841C124.824 61.3841 124.826 62.0319 124.717 62.3666C124.586 62.7676 124.557 63.2108 124.362 63.5801C123.994 64.2806 124.153 65.0683 123.881 65.8022C123.742 66.177 123.649 66.5461 123.512 66.9149C123.406 67.2029 123.501 67.7457 123.501 68.0634C123.501 68.2953 123.496 68.6956 123.276 68.8084C123.176 68.86 123.001 68.7428 122.995 68.9256C122.989 69.0855 122.995 69.247 122.995 69.4071C122.995 70.108 123.045 70.8061 123.045 71.5153C123.045 72.1669 122.995 72.8447 122.995 73.4771C122.995 73.8294 123.213 74.8983 123.608 75.2712Z" fill="#2F2E41"/>
<path d="M124.101 68.8349L124.082 67.5231C124.08 67.3919 125.364 67.3007 126.193 67.2334C127.21 67.1508 127.787 67.144 128.806 67.1995C130.131 67.2717 130.859 67.4876 132.173 67.6807C132.806 67.7738 133.155 67.9169 133.794 67.9221C134.53 67.9282 134.93 67.7531 135.657 67.6356C136.92 67.4313 137.607 67.1253 138.884 67.069C140.053 67.0174 140.716 67.1069 141.874 67.2927C142.364 67.3713 143.121 67.4656 143.122 67.5389C143.127 67.9324 143.317 68.8484 143.141 68.8507C142.768 68.8555 142.893 68.9856 142.771 69.1178C142.404 69.5162 142.608 71.6938 141.827 72.6725C141.184 73.4785 140.726 73.6051 139.726 73.6181L139.726 73.6181C138.108 73.639 137.735 73.6438 136.606 73.0025C135.18 72.1926 135.006 68.956 134.058 68.9683C133.561 68.9747 133.436 68.9764 133.314 69.1091C132.615 69.8661 132.808 71.329 131.866 72.2767C130.756 73.3935 129.677 73.9899 128.155 73.7679C126.858 73.5789 125.659 73.2755 125.266 71.9685C124.98 71.0152 125.238 70.0009 124.851 69.0876C124.763 68.8781 124.104 69.064 124.101 68.8349Z" fill="#2F2E41"/>
<path d="M132.196 69.2548C132.337 70.4338 131.508 73.3309 128.791 73.4354C125.912 73.5463 125.765 72.0239 125.601 69.3402C125.98 68.0233 126.51 67.7541 128.708 67.7256C130.907 67.6971 132.054 68.0758 132.196 69.2548Z" fill="#F2F2F2" fill-opacity="0.19"/>
<path d="M142.025 69.1276C142.166 70.3066 142.09 73.5875 138.869 73.305C136.307 73.0802 135.59 71.6343 135.427 68.9507C136.034 67.8932 136.588 67.6236 138.787 67.5952C140.985 67.5667 141.883 67.9486 142.025 69.1276Z" fill="#F2F2F2" fill-opacity="0.19"/>
<path d="M129.561 80.2508C129.445 80.6611 128.657 80.688 128.657 80.688C128.657 80.688 128.382 79.5598 128.59 78.8619C128.729 78.3934 128.779 78.077 129.205 77.7235C130.097 76.982 130.994 76.3419 132.569 76.2881C133.226 76.2657 133.388 76.5501 133.894 76.5476C134.446 76.5448 134.67 76.2163 135.327 76.1939C137.401 76.123 139.059 77.5901 139.494 78.6926C139.733 79.2968 139.555 80.3158 139.555 80.3158C139.555 80.3158 138.732 80.2478 138.62 79.9414C138.474 79.54 138.309 78.6315 137.78 78.548C136.722 78.381 136.034 78.8728 134.892 78.6466C134.625 78.5939 134.243 78.6017 133.969 78.5766C133.765 78.558 133.52 78.6788 133.316 78.7005C132.4 78.7978 132.396 78.7029 131.737 78.6528C131.078 78.6028 129.954 78.7529 129.662 79.4347C129.533 79.7373 129.646 79.9523 129.561 80.2508Z" fill="#2F2E41"/>
<path d="M195.451 119.129L196.439 118.973L195.451 119.129ZM177.064 160.739C176.92 161.272 177.235 161.821 177.768 161.965L186.457 164.312C186.99 164.456 187.539 164.141 187.683 163.607C187.827 163.074 187.512 162.525 186.979 162.381L179.255 160.295L181.341 152.572C181.485 152.039 181.17 151.49 180.637 151.346C180.103 151.202 179.554 151.517 179.41 152.051L177.064 160.739ZM171.395 86.7638C184.471 97.8156 192.165 104.752 194.463 119.285L196.439 118.973C194.013 103.632 185.741 96.2703 172.686 85.2362L171.395 86.7638ZM194.463 119.285C197.131 136.154 190.703 152.563 177.531 160.133L178.527 161.867C192.577 153.793 199.204 136.464 196.439 118.973L194.463 119.285Z" fill="#1F2D2B"/>
</svg>
