<svg width="181" height="263" viewBox="0 0 181 263" fill="none" xmlns="http://www.w3.org/2000/svg">
<g clip-path="url(#clip0_187_186)">
<path d="M127.426 61.9349L143.008 83.2401C143.008 83.2401 156.293 88.8356 171.819 100.07L168.103 105.882C168.103 105.882 142.475 95.3707 135.916 90.9295L123.941 72.1241L127.426 61.9349Z" fill="#A0616A"/>
<path d="M119.81 43.7471L124.909 42.2983C124.909 42.2983 127.877 42.304 129.552 45.2243C131.226 48.1445 143.083 74.182 142.521 75.1907C141.959 76.1994 141.175 76.4222 142.182 76.9851C143.189 77.548 144.111 77.2627 143.424 78.1061C142.738 78.9496 143.686 80.8026 143.686 80.8026L130.606 90.4691L119.81 43.7471Z" fill="#345955"/>
<path d="M100.026 257.849L106.247 257.848L109.206 233.813L100.025 233.814L100.026 257.849Z" fill="#A0616A"/>
<path d="M121.34 257.708C121.534 258.034 121.636 259.089 121.636 259.469C121.636 260.637 120.691 261.584 119.524 261.584H100.259C99.463 261.584 98.8181 260.938 98.8181 260.141V259.338C98.8181 259.338 97.865 256.923 99.8272 253.947C99.8272 253.947 102.266 256.277 105.91 252.627L106.985 250.677L114.764 256.375L119.075 256.907C120.018 257.023 120.855 256.889 121.34 257.708Z" fill="#2F2E41"/>
<path d="M122.542 251.776L128.677 252.808L135.571 229.597L126.516 228.073L122.542 251.776Z" fill="#A0616A"/>
<path d="M143.585 255.174C143.722 255.528 143.648 256.585 143.585 256.96C143.392 258.112 142.303 258.889 141.153 258.695L122.154 255.498C121.369 255.366 120.84 254.622 120.972 253.836L121.105 253.044C121.105 253.044 120.564 250.505 122.992 247.895C122.992 247.895 125.011 250.598 129.209 247.603L130.591 245.859L137.32 252.769L141.484 254.009C142.395 254.28 143.242 254.286 143.585 255.174Z" fill="#2F2E41"/>
<path d="M135.295 128.449C135.295 128.449 143.653 138.251 143.653 147.235C143.653 156.22 143.857 184.443 143.857 184.443C143.857 184.443 138.964 228.504 137.741 232.18C136.518 235.855 135.906 241.981 135.906 241.981L124.082 239.122C124.082 239.122 122.451 197.671 127.344 187.87L115.52 154.382L111.443 249.128H97.7166C97.7166 249.128 90.6488 199.305 94.3183 186.236C94.3183 186.236 86.1638 136.413 88.2024 133.554C90.2411 130.695 135.295 128.449 135.295 128.449Z" fill="#2F2E41"/>
<path d="M104.919 30.8444L115.928 31.6611L119.597 37.787C119.597 37.787 128.16 41.4625 129.383 46.7715C130.606 52.0806 131.014 114.156 131.014 114.156L137.13 123.14L136.722 130.9L87.7948 133.35V125.89L83.3098 117.014C83.3098 117.014 88.2025 45.9547 89.4257 45.5463C90.6489 45.138 100.027 38.6037 100.027 38.6037L104.919 30.8444Z" fill="#274743" fill-opacity="0.85"/>
<path d="M109.901 29.3247C117.558 29.3247 123.764 23.1081 123.764 15.4395C123.764 7.77094 117.558 1.55432 109.901 1.55432C102.245 1.55432 96.0388 7.77094 96.0388 15.4395C96.0388 23.1081 102.245 29.3247 109.901 29.3247Z" fill="#A0616A"/>
<path d="M120.975 4.27115C120.269 2.26732 118.312 1.05164 116.191 1.09899C116.102 1.10097 116.012 1.10014 115.923 1.09648C114.855 1.05274 113.83 0.687362 112.782 0.473014C110.831 0.0734876 108.772 0.207249 106.889 0.856045C106.303 1.05773 105.717 1.31133 105.097 1.3114C104.478 1.31149 103.804 0.971386 103.653 0.369908C103.617 0.914476 103.581 1.45901 103.545 2.00355C103.344 1.56282 103.142 1.12205 102.941 0.681285L102.537 2.439L101.244 0.969998C101.36 1.61748 100.983 2.27007 100.473 2.68403C99.9625 3.09802 99.3323 3.32701 98.7282 3.58493C96.1208 4.69814 93.6726 6.66907 92.9213 9.40652C92.4467 11.136 92.695 12.9716 92.9465 14.7474C93.1688 16.3174 93.4105 17.9416 94.2625 19.278C94.8087 20.1347 95.5959 20.8556 95.9284 21.8159C96.2384 22.7111 96.1209 23.736 96.562 24.5742C97.0048 25.4162 97.9191 25.8925 98.814 26.2124C99.7087 26.5324 100.66 26.7587 101.431 27.3154C102.201 27.8722 103.095 29.4761 104.774 29.3897L105.316 28.3701C105.874 27.9152 103.811 28.2758 103.789 27.556C103.768 26.8361 106.271 26.3914 105.916 25.765C105.372 24.8045 104.636 23.9685 104.023 23.0505C103.306 21.977 102.742 20.7228 102.989 19.4125C103.085 18.9028 103.324 18.4214 103.686 18.0512C104.732 16.9838 105.898 17.453 107.031 17.6056C107.812 17.711 108.745 17.5894 109.151 16.9125C109.625 16.1206 109.096 15.1132 109.161 14.192C109.23 13.2158 109.968 12.4154 110.772 11.8588C111.575 11.3023 112.488 10.8969 113.21 10.2387C113.933 9.5804 114.448 8.55204 114.133 7.6258C117.56 6.19688 118.084 6.06174 121.693 6.93314C121.521 6.02932 121.28 5.13881 120.975 4.27115Z" fill="#2F2E41"/>
<path d="M62.4509 181.861V139.715C62.4509 138.559 62.9428 137.453 63.8006 136.68C64.6583 135.906 65.8082 135.532 66.9562 135.653C77.5903 134.22 87.6059 134.902 96.6828 138.793C97.7109 138.793 98.5474 139.631 98.5474 140.661V182.954C98.5474 183.984 97.7109 184.822 96.6828 184.822C86.6912 182.475 76.1528 183.086 65.4064 184.822C63.7767 184.822 62.4509 183.494 62.4509 181.861Z" fill="#9BA8A6"/>
<path d="M62.4509 185.613V143.022C62.4509 140.769 64.2802 138.937 66.5287 138.937C76.6975 136.272 86.749 136.268 96.6828 138.937C97.7109 138.937 98.5474 139.775 98.5474 140.805V182.666C98.5474 183.694 97.7134 184.531 96.6874 184.533C86.8925 182.826 76.4002 184.489 65.4064 188.574C63.7767 188.574 62.4509 187.246 62.4509 185.613Z" fill="#9BA8A6"/>
<path d="M85.9322 156.538H76.4235C73.0086 156.538 70.2303 153.756 70.2303 150.335C70.2303 146.915 73.0086 144.132 76.4235 144.132H85.9322C89.3475 144.132 92.1257 146.915 92.1257 150.335C92.1257 153.756 89.3475 156.538 85.9322 156.538Z" fill="#9BA8A6"/>
<path d="M94.6471 72.8832L94.2836 94.8726C94.2836 94.8726 93.122 112.01 90.2372 131.295L83.3608 131.735C83.3608 131.735 84.2069 101.623 83.8987 93.6992L84.3849 76.1005L94.6471 72.8832Z" fill="#A0616A"/>
<path d="M87.4486 144.925C90.0828 144.836 92.0959 141.161 91.9451 136.717C91.7943 132.274 89.5367 128.744 86.9026 128.834C84.2684 128.923 82.2553 132.598 82.4061 137.042C82.5569 141.486 84.8145 145.015 87.4486 144.925Z" fill="#A0616A"/>
<path d="M94.5402 44.8882L89.2433 45.0814C89.2433 45.0814 86.4208 46.0017 85.7246 49.2964C85.0284 52.591 80.1482 86.6878 80.9928 87.4743C81.8374 88.2608 82.6523 88.2311 81.8671 89.077C81.0819 89.923 80.1169 89.9357 81.0291 90.5266C81.9413 91.1176 81.608 93.1731 81.608 93.1731L96.2581 92.1334L94.5402 44.8882Z" fill="#345955"/>
<path d="M71.3204 252.979C70.1278 253.053 69.4688 251.569 70.371 250.704L70.4607 250.347C70.4489 250.318 70.437 250.29 70.4251 250.261C69.2191 247.381 65.1318 247.401 63.9361 250.285C62.8748 252.846 61.5236 255.41 61.1909 258.117C61.0417 259.312 61.1088 260.53 61.3736 261.702C58.8868 256.261 57.5781 250.32 57.5781 244.345C57.5781 242.844 57.6602 241.342 57.8279 239.845C57.9659 238.62 58.156 237.403 58.4021 236.196C59.7331 229.676 62.6151 223.466 66.7722 218.279C68.7705 217.185 70.4371 215.474 71.4437 213.424C71.8054 212.685 72.0887 211.889 72.2229 211.079C71.9955 211.109 71.3654 207.64 71.537 207.427C71.22 206.945 70.6527 206.706 70.3066 206.236C68.5851 203.898 66.2133 204.306 64.9751 207.483C62.33 208.82 62.3044 211.038 63.9274 213.17C64.96 214.527 65.1019 216.363 66.0079 217.816C65.9146 217.935 65.8177 218.051 65.7245 218.171C64.0152 220.366 62.5369 222.727 61.2907 225.206C61.6429 222.451 61.1229 219.131 60.2364 216.991C59.2273 214.552 57.3358 212.499 55.6702 210.391C53.6695 207.859 49.5668 208.964 49.2143 212.173C49.2109 212.204 49.2076 212.236 49.2043 212.267C49.4517 212.406 49.6941 212.555 49.9309 212.712C51.2813 213.606 50.8146 215.703 49.2145 215.951L49.1783 215.956C49.2677 216.849 49.4206 217.734 49.6443 218.604C47.5075 226.881 52.1207 229.896 58.7078 230.031C58.8532 230.106 58.9949 230.18 59.1403 230.251C58.4729 232.133 57.9398 234.064 57.5446 236.021C57.1904 237.75 56.9443 239.498 56.8064 241.253C56.6349 243.467 56.6498 245.693 56.8362 247.904L56.825 247.825C56.3515 245.39 55.0317 243.116 53.1153 241.54C50.2605 239.191 46.2272 238.326 43.1474 236.438C41.6649 235.529 39.7651 236.704 40.0238 238.426L40.0364 238.508C40.495 238.695 40.9424 238.911 41.3749 239.154C41.6223 239.294 41.8647 239.442 42.1014 239.599C43.4519 240.494 42.9852 242.591 41.385 242.838L41.3488 242.844C41.3227 242.847 41.3003 242.851 41.2742 242.855C42.0609 244.726 43.157 246.462 44.529 247.96C45.8651 255.185 51.6037 255.871 57.7422 253.767H57.7459C58.417 256.694 59.3976 259.555 60.6577 262.281H71.0597C71.097 262.165 71.1306 262.046 71.1641 261.93C70.2022 261.99 69.2328 261.934 68.2858 261.758C69.0576 260.81 69.8293 259.854 70.6011 258.905C70.6198 258.886 70.6347 258.868 70.6496 258.849C71.0411 258.364 71.4363 257.882 71.8277 257.396L71.8279 257.396C71.8524 255.906 71.6738 254.42 71.3204 252.979Z" fill="#F0F4F4"/>
<path d="M187.664 262.312C187.664 262.694 187.358 263 186.977 263H40.7678C40.3869 263 40.0809 262.694 40.0809 262.312C40.0809 261.93 40.3869 261.624 40.7678 261.624H186.977C187.358 261.624 187.664 261.93 187.664 262.312Z" fill="#CCCCCC"/>
</g>
<path d="M177.965 108.031C179.452 105.851 177.686 102.051 174.021 99.5421C170.356 97.0336 166.18 96.767 164.692 98.9466C163.205 101.126 164.971 104.927 168.636 107.435C172.301 109.944 176.478 110.21 177.965 108.031Z" fill="#A0616A"/>
<defs>
<clipPath id="clip0_187_186">
<rect width="168.512" height="263" fill="white"/>
</clipPath>
</defs>
</svg>
